<svg id="Layer_1" data-name="Layer 1" xmlns="http://www.w3.org/2000/svg" viewBox="0 0 1080 1080">
  <g>
    <path d="M64.021,532.18a114.985,114.985,0,0,1-47.346-46.086Q-.008,456.329,0,416.858q0-39.432,16.675-69.221a114.976,114.976,0,0,1,47.346-46.085q30.666-16.314,71.206-16.321,40.516,0,71.189,16.321a114.979,114.979,0,0,1,47.347,46.085q16.683,29.788,16.675,69.221,0,39.479-16.675,69.236a114.987,114.987,0,0,1-47.347,46.086q-30.664,16.313-71.189,16.321Q94.687,548.5,64.021,532.18Zm111.2-45.917a67.659,67.659,0,0,0,26.888-27.8q9.507-17.928,9.506-41.609t-9.506-41.594a67.793,67.793,0,0,0-26.888-27.811q-17.421-9.853-39.994-9.86-22.613,0-39.825,9.86a68.075,68.075,0,0,0-26.72,27.811q-9.506,17.928-9.506,41.594t9.506,41.609a67.939,67.939,0,0,0,26.72,27.8q17.212,9.876,39.825,9.876Q157.816,496.139,175.221,486.263Z"/>
    <path d="M408.224,419.066a58.833,58.833,0,0,1,22.249,24.112q7.96,15.51,7.954,35.372t-7.954,35.373a58.7,58.7,0,0,1-22.249,24.112q-14.316,8.609-32.588,8.613-24.392,0-40.543-15.374V600.7h-41.6V413.111h36.032l2.647,15.363q16.431-18.016,43.464-18.022Q393.908,410.452,408.224,419.066Zm-19.873,83.46q8.744-9.135,8.738-23.976t-8.738-23.975q-8.744-9.137-22.522-9.147t-22.4,9.283q-8.607,9.271-8.6,23.839t8.6,23.851q8.607,9.273,22.4,9.272Q379.6,511.673,388.351,502.526Z"/>
    <path d="M554.477,538.967q-15.375,7.67-34.714,7.681-21.459,0-33.907-12.056T473.4,495.777V446.223h-22.26V413.111H473.4V380.523l41.327-4.512v37.1h32.589v33.112H514.729v49.554q0,7.943,3.977,11.794,3.972,3.835,10.863,3.841a33.368,33.368,0,0,0,15.1-3.716Z"/>
    <polygon points="737.67 606.381 737.67 791.851 694.49 791.851 694.49 717.401 616.26 717.401 616.26 794.761 571.38 794.761 571.38 410.451 616.26 410.451 616.26 678.181 694.49 678.181 694.49 606.381 737.67 606.381"/>
    <path d="M672.514,538.569a59.846,59.846,0,0,1-25.168-23.714q-8.88-15.374-8.875-36.032,0-20.4,9-35.907a62.466,62.466,0,0,1,25.18-24.112q16.158-8.607,37.35-8.613a76,76,0,0,1,27.828,5.17A69.781,69.781,0,0,1,761.407,430.6l-23.056,25.169a37.27,37.27,0,0,0-26.225-10.34q-14.3,0-23.317,9.147T679.8,478.55q0,14.847,8.875,23.976,8.88,9.153,23.453,9.147a37.512,37.512,0,0,0,27.555-11.4l23.578,24.908Q741.272,546.916,710.8,546.91,688.809,546.91,672.514,538.569Z"/>
    <path d="M903.807,660.959v130.89H867.763l-2.647-15.1a48.817,48.817,0,0,1-18.147,13.386,58.7,58.7,0,0,1-23.453,4.636q-24.1,0-38.418-15.9-14.3-15.9-14.306-43.986V660.959h41.6V732.5q0,12.716,6.227,19.874t17.09,7.147q11.931,0,19.214-8.34t7.284-21.59V660.959Z"/>
    <path d="M1049.8,666.925a58.65,58.65,0,0,1,22.26,24.112Q1080,706.531,1080,726.41t-7.943,35.372A58.726,58.726,0,0,1,1049.8,785.9q-14.3,8.607-32.588,8.6-26.76,0-43.452-18.283l-2.648,15.636H935.077V606.383h41.589v67.03q16.429-15.1,40.543-15.1Q1035.5,658.312,1049.8,666.925Zm-19.873,83.46q8.744-9.135,8.749-23.975t-8.749-23.987q-8.745-9.137-22.522-9.136t-22.385,9.272q-8.607,9.272-8.613,23.851t8.613,23.839q8.608,9.289,22.385,9.272Q1021.175,759.521,1029.924,750.385Z"/>
  </g>
</svg>
