<svg width="24" height="24" viewBox="0 0 24 24" fill="none" xmlns="http://www.w3.org/2000/svg">
<path fill-rule="evenodd" clip-rule="evenodd" d="M6.237 4.71202C6.42324 4.64723 6.57648 4.5117 6.66353 4.33476C6.75058 4.15783 6.76445 3.95373 6.70213 3.76664C6.63982 3.57956 6.50633 3.42454 6.33056 3.33515C6.15479 3.24576 5.95089 3.22919 5.763 3.28902L5.208 3.47402C4.638 3.66402 4.153 3.82502 3.769 4.00102C3.36 4.18802 3.002 4.41702 2.718 4.77702C2.433 5.13702 2.292 5.53702 2.203 5.97702C2.12 6.39202 2.074 6.90002 2.02 7.49902L1.322 15.169C1.27428 15.4408 1.25019 15.7161 1.25 15.992C1.255 18.611 3.38 20.75 6 20.75C7.12743 20.75 8.21812 20.3491 9.07713 19.6189C9.93613 18.8886 10.5075 17.8767 10.689 16.764L10.908 16.686C11.6142 16.4342 12.3858 16.4342 13.092 16.686L13.312 16.764C13.4935 17.8766 14.0647 18.8883 14.9235 19.6185C15.7823 20.3487 16.8727 20.7498 18 20.75C20.62 20.75 22.744 18.61 22.75 15.992C22.75 15.712 22.725 15.436 22.677 15.169L21.98 7.50002C21.926 6.90002 21.88 6.39302 21.797 5.97902C21.708 5.53802 21.567 5.13702 21.282 4.77802C20.997 4.41802 20.64 4.18802 20.231 4.00202C19.847 3.82602 19.363 3.66502 18.792 3.47502L18.237 3.29002C18.0491 3.23019 17.8452 3.24676 17.6694 3.33615C17.4937 3.42554 17.3602 3.58056 17.2979 3.76764C17.2355 3.95473 17.2494 4.15883 17.3365 4.33576C17.4235 4.5127 17.5768 4.64823 17.763 4.71302L18.281 4.88502C18.898 5.09102 19.305 5.22802 19.607 5.36602C19.893 5.49602 20.021 5.60102 20.107 5.70902C20.192 5.81602 20.264 5.96502 20.326 6.27302C20.391 6.59902 20.431 7.02602 20.49 7.67402L20.905 12.243C20.2574 11.7426 19.4915 11.418 18.6816 11.3006C17.8716 11.1833 17.0451 11.2771 16.2821 11.573C15.5191 11.869 14.8454 12.357 14.3265 12.9899C13.8075 13.6227 13.4608 14.3788 13.32 15.185C12.4577 14.9356 11.5423 14.9356 10.68 15.185C10.5392 14.3788 10.1925 13.6227 9.67353 12.9899C9.15457 12.357 8.48094 11.869 7.71792 11.573C6.95491 11.2771 6.12838 11.1833 5.31844 11.3006C4.50849 11.418 3.74261 11.7426 3.095 12.243L3.143 11.711L3.51 7.67402C3.569 7.02602 3.609 6.59902 3.674 6.27402C3.736 5.96502 3.808 5.81602 3.894 5.70902C3.979 5.60102 4.107 5.49702 4.393 5.36602C4.695 5.22802 5.102 5.09102 5.719 4.88602L6.237 4.71202Z" fill="white"/>
</svg>
